<svg width="25" height="24" viewBox="0 0 25 24" fill="none" xmlns="http://www.w3.org/2000/svg">
    <path
        d="M8.9 3L5.1 3C4.53995 3 4.25992 3 4.04601 3.10899C3.85785 3.20487 3.70487 3.35785 3.60899 3.54601C3.5 3.75992 3.5 4.03995 3.5 4.6L3.5 8.4C3.5 8.96005 3.5 9.24008 3.60899 9.45399C3.70487 9.64215 3.85785 9.79513 4.04601 9.89101C4.25992 10 4.53995 10 5.1 10L8.9 10C9.46005 10 9.74008 10 9.95399 9.89101C10.1422 9.79513 10.2951 9.64215 10.391 9.45399C10.5 9.24008 10.5 8.96005 10.5 8.4L10.5 4.6C10.5 4.03995 10.5 3.75992 10.391 3.54601C10.2951 3.35785 10.1422 3.20487 9.95399 3.10899C9.74008 3 9.46005 3 8.9 3Z"
        stroke="white" stroke-width="2" stroke-linecap="round" stroke-linejoin="round" />
    <path
        d="M19.9 3L16.1 3C15.5399 3 15.2599 3 15.046 3.10899C14.8578 3.20487 14.7049 3.35785 14.609 3.54601C14.5 3.75992 14.5 4.03995 14.5 4.6L14.5 8.4C14.5 8.96005 14.5 9.24008 14.609 9.45399C14.7049 9.64215 14.8578 9.79513 15.046 9.89101C15.2599 10 15.5399 10 16.1 10L19.9 10C20.4601 10 20.7401 10 20.954 9.89101C21.1422 9.79513 21.2951 9.64215 21.391 9.45399C21.5 9.24008 21.5 8.96005 21.5 8.4L21.5 4.6C21.5 4.03995 21.5 3.75992 21.391 3.54601C21.2951 3.35785 21.1422 3.20487 20.954 3.10899C20.7401 3 20.4601 3 19.9 3Z"
        stroke="white" stroke-width="2" stroke-linecap="round" stroke-linejoin="round" />
    <path
        d="M19.9 14L16.1 14C15.5399 14 15.2599 14 15.046 14.109C14.8578 14.2049 14.7049 14.3578 14.609 14.546C14.5 14.7599 14.5 15.0399 14.5 15.6L14.5 19.4C14.5 19.9601 14.5 20.2401 14.609 20.454C14.7049 20.6422 14.8578 20.7951 15.046 20.891C15.2599 21 15.5399 21 16.1 21L19.9 21C20.4601 21 20.7401 21 20.954 20.891C21.1422 20.7951 21.2951 20.6422 21.391 20.454C21.5 20.2401 21.5 19.9601 21.5 19.4L21.5 15.6C21.5 15.0399 21.5 14.7599 21.391 14.546C21.2951 14.3578 21.1422 14.2049 20.954 14.109C20.7401 14 20.4601 14 19.9 14Z"
        stroke="white" stroke-width="2" stroke-linecap="round" stroke-linejoin="round" />
    <path
        d="M8.9 14L5.1 14C4.53995 14 4.25992 14 4.04601 14.109C3.85785 14.2049 3.70487 14.3578 3.60899 14.546C3.5 14.7599 3.5 15.0399 3.5 15.6L3.5 19.4C3.5 19.9601 3.5 20.2401 3.60899 20.454C3.70487 20.6422 3.85785 20.7951 4.04601 20.891C4.25992 21 4.53995 21 5.1 21L8.9 21C9.46005 21 9.74008 21 9.95399 20.891C10.1422 20.7951 10.2951 20.6422 10.391 20.454C10.5 20.2401 10.5 19.9601 10.5 19.4L10.5 15.6C10.5 15.0399 10.5 14.7599 10.391 14.546C10.2951 14.3578 10.1422 14.2049 9.95399 14.109C9.74008 14 9.46005 14 8.9 14Z"
        stroke="white" stroke-width="2" stroke-linecap="round" stroke-linejoin="round" />
</svg>