<svg width="21" height="24" viewBox="0 0 21 24" fill="none" xmlns="http://www.w3.org/2000/svg">
    <g clip-path="url(#clip0_862_7004)">
        <path
            d="M10.4549 23.6307C9.98922 23.5274 9.65875 23.232 9.3433 22.907C7.69094 21.2677 6.09866 19.584 4.74673 17.6935C3.21454 15.552 2.01283 13.248 1.30682 10.7077C1.02141 9.68859 0.826132 8.65474 0.690939 7.60613C0.555746 6.43936 0.450596 5.27259 0.420553 4.09105C0.39051 2.96859 0.375488 1.84612 0.375488 0.723663C0.375488 0.487356 0.510681 0.369202 0.766046 0.369202C4.43128 0.369202 8.09652 0.369202 11.7618 0.369202C14.5708 0.369202 17.3648 0.369202 20.1738 0.369202C20.4892 0.369202 20.6094 0.457817 20.6094 0.767971C20.6094 1.50643 20.6094 2.24489 20.6094 2.98336C20.5794 3.91382 20.5493 4.82951 20.4892 5.75997C20.3991 7.17782 20.2339 8.58089 19.9034 9.9692C19.4377 11.9187 18.6866 13.7501 17.6952 15.4781C16.5236 17.5163 15.0815 19.3624 13.4592 21.0757C12.8884 21.6812 12.3025 22.272 11.7167 22.8627C11.3862 23.1877 11.0557 23.5126 10.5751 23.6455H10.4699L10.4549 23.6307ZM19.9485 1.00428C19.9485 1.00428 19.8433 1.00428 19.7982 1.00428C13.5944 1.00428 7.37549 1.00428 1.17163 1.00428C1.03643 1.00428 0.991368 1.04859 1.00639 1.18151C1.02141 2.02336 1.00639 2.85043 1.06648 3.69228C1.12656 4.85905 1.21669 6.04059 1.32184 7.20736C1.39695 8.09351 1.54716 8.97966 1.77248 9.83628C1.83257 10.0578 1.80253 10.0283 2.02785 10.0283C7.69094 10.0283 13.354 10.0283 19.0171 10.0283C19.0472 10.0283 19.0772 10.0283 19.1223 10.0283C19.1974 10.0283 19.2424 9.99874 19.2575 9.92489C19.3025 9.74766 19.3326 9.5852 19.3776 9.40797C19.5579 8.61043 19.6781 7.79812 19.7382 6.98582C19.7982 6.27689 19.8583 5.56797 19.9034 4.85905C19.9334 4.32736 19.9635 3.79566 19.9785 3.2492C19.9785 2.51074 19.9785 1.78705 19.9785 1.04859C19.9785 1.04859 19.9785 1.01905 19.9635 0.989509L19.9485 1.00428ZM11.5364 22.0652C11.5364 22.0652 11.4763 21.9766 11.4313 21.9323C10.0042 19.9975 8.56218 18.048 7.13515 16.1132C5.82828 14.3409 4.52141 12.5686 3.21454 10.811C3.13944 10.7077 3.06433 10.6634 2.94416 10.6781C2.67377 10.6781 2.41841 10.6781 2.14802 10.6781C2.10296 10.6781 2.04287 10.6781 1.96776 10.6781C2.02785 10.811 2.07291 10.944 2.14802 11.0326C5.01712 14.9169 7.88622 18.7864 10.7553 22.6707C10.7854 22.715 10.8154 22.7446 10.8755 22.8184C11.1158 22.5674 11.3261 22.3163 11.5665 22.0652H11.5364ZM11.8068 21.7698C12.0171 21.5778 12.2124 21.4154 12.4077 21.2234C12.5879 21.0461 12.5729 21.0904 12.4377 20.8984C11.7768 20.0123 11.1309 19.1261 10.4699 18.24C8.63729 15.7587 6.80467 13.2775 4.97205 10.7963C4.89695 10.6929 4.82184 10.6486 4.68665 10.6486C4.38622 10.6486 4.08579 10.6486 3.78536 10.6486C3.7403 10.6486 3.69523 10.6486 3.6051 10.6486C6.35403 14.3704 9.08794 18.0627 11.8068 21.7403V21.7698ZM5.39266 10.6634V10.7077C7.85618 14.0603 10.3347 17.4277 12.8283 20.795C13.0386 20.5587 13.2339 20.3372 13.4442 20.1304C13.5193 20.0566 13.5193 19.9975 13.4442 19.9237C13.0386 19.3772 12.633 18.8307 12.2424 18.299C10.3948 15.803 8.54716 13.2923 6.69952 10.7963C6.63944 10.7077 6.57935 10.6781 6.4742 10.6781C6.24888 10.6781 6.00854 10.6781 5.76819 10.6781C5.64802 10.6781 5.52785 10.6781 5.39266 10.6781V10.6634ZM13.8047 19.7317C14.015 19.4806 14.2103 19.259 14.4055 19.0227C14.4656 18.9489 14.4506 18.9046 14.4055 18.8307C12.4077 16.1427 10.4248 13.4547 8.44201 10.752C8.38193 10.6781 8.32184 10.6486 8.23171 10.6486C7.91626 10.6486 7.60081 10.6486 7.28536 10.6486C7.2403 10.6486 7.19523 10.6486 7.12012 10.6486C9.35832 13.6763 11.5815 16.6744 13.8197 19.7021L13.8047 19.7317ZM8.84759 10.6781C10.8154 13.3366 12.7682 15.9803 14.721 18.624C14.9163 18.3729 15.0965 18.1218 15.2918 17.9003C15.3519 17.8264 15.3519 17.7674 15.2918 17.6935C14.8862 17.1618 14.4957 16.6154 14.1051 16.0837C12.7982 14.3261 11.5064 12.5686 10.2145 10.811C10.1394 10.7077 10.0643 10.6781 9.94416 10.6781C9.64373 10.6781 9.3433 10.6781 9.04287 10.6781C8.99781 10.6781 8.93772 10.6781 8.86261 10.6781H8.84759ZM15.6223 17.4572C15.8175 17.1618 16.0128 16.896 16.1931 16.6301C16.2081 16.6006 16.1931 16.5415 16.1931 16.512C16.118 16.3938 16.0128 16.2757 15.9377 16.1575C14.6158 14.3704 13.2939 12.5686 11.9721 10.7815C11.912 10.6929 11.8369 10.6634 11.7317 10.6634C11.4163 10.6634 11.1008 10.6634 10.8004 10.6634C10.7553 10.6634 10.7103 10.6634 10.6351 10.6634C12.3175 12.9378 13.9699 15.1827 15.6523 17.4572H15.6223ZM10.3798 22.9218C10.3798 22.9218 10.3948 22.907 10.4098 22.8923C7.79609 19.3477 5.16733 15.803 2.5536 12.2584C2.5536 12.3175 2.5536 12.347 2.5536 12.3914C3.36476 14.4738 4.52141 16.3643 5.88836 18.1366C6.8948 19.4363 8.02141 20.6474 9.17806 21.8141C9.50854 22.139 9.83901 22.4492 10.1845 22.7741C10.2446 22.8332 10.3197 22.8627 10.3798 22.907V22.9218ZM16.4635 16.2314C16.6588 15.9212 16.824 15.6406 17.0042 15.3452C17.0193 15.3157 17.0042 15.2418 16.9742 15.1975C15.8776 13.7206 14.7811 12.2437 13.6995 10.752C13.6394 10.6781 13.5944 10.6486 13.4892 10.6486C13.1738 10.6486 12.8433 10.6486 12.5278 10.6486C12.4828 10.6486 12.4377 10.6486 12.3776 10.6634C13.7596 12.5243 15.1115 14.3557 16.4785 16.2166L16.4635 16.2314ZM14.1051 10.6781C15.1566 12.1107 16.1931 13.5138 17.2446 14.9317C17.2746 14.8726 17.3047 14.8283 17.3197 14.7987C17.4549 14.5624 17.5751 14.3114 17.7103 14.075C17.7553 13.9864 17.7553 13.9274 17.6952 13.8387C16.9442 12.8197 16.1931 11.8006 15.442 10.7815C15.3819 10.7077 15.3218 10.6781 15.2167 10.6781C14.9012 10.6781 14.5858 10.6781 14.2854 10.6781C14.2403 10.6781 14.1952 10.6781 14.1051 10.6781ZM15.8927 10.6634C15.8927 10.6634 15.8927 10.6929 15.8776 10.7077C16.5686 11.6381 17.2596 12.5686 17.9656 13.5434C18.1158 13.1741 18.266 12.8344 18.4012 12.4947C18.4012 12.4652 18.3862 12.4061 18.3562 12.3766C17.9656 11.8449 17.56 11.2984 17.1695 10.7667C17.1244 10.7224 17.0493 10.6781 16.9742 10.6781C16.7489 10.6781 16.5236 10.6781 16.2982 10.6781C16.163 10.6781 16.0278 10.6781 15.8776 10.6781L15.8927 10.6634ZM18.5965 12.0221C18.7467 11.5495 18.8969 11.1212 19.0472 10.6781H17.6051C17.9356 11.136 18.251 11.5643 18.5965 12.0221Z"
            fill="#254A3D" stroke="#254A3D" stroke-width="0.5" stroke-linecap="round"
            stroke-linejoin="round" />
        <path
            d="M8.47207 3.38218C8.63731 3.47079 8.74246 3.60372 8.75748 3.81049C8.7725 4.17972 8.5622 4.41602 8.18666 4.43079C7.96134 4.43079 7.721 4.43079 7.49567 4.43079C7.39052 4.43079 7.34546 4.38649 7.34546 4.2831C7.34546 3.7071 7.34546 3.11633 7.34546 2.54033C7.34546 2.45172 7.39052 2.39264 7.48065 2.39264C7.721 2.39264 7.97636 2.39264 8.2167 2.39264C8.60726 2.40741 8.84761 2.79141 8.66735 3.14587C8.62228 3.23449 8.53215 3.29356 8.47207 3.36741V3.38218ZM7.90125 4.20925C8.0064 4.20925 8.11155 4.20925 8.20168 4.17972C8.39696 4.15018 8.50211 4.01725 8.50211 3.82525C8.50211 3.64802 8.38194 3.5151 8.18666 3.50033C8.02142 3.50033 7.85619 3.50033 7.70597 3.50033C7.61585 3.50033 7.5858 3.54464 7.5858 3.61849C7.5858 3.7071 7.5858 3.81049 7.5858 3.8991C7.5858 4.09602 7.68595 4.19449 7.88623 4.19449L7.90125 4.20925ZM7.60082 2.95387C7.60082 3.04249 7.60082 3.11633 7.60082 3.20495C7.60082 3.23449 7.63087 3.27879 7.64589 3.27879C7.84117 3.27879 8.05147 3.27879 8.24675 3.24925C8.39696 3.23449 8.47207 3.08679 8.47207 2.9391C8.47207 2.79141 8.38194 2.65849 8.23173 2.62895C8.1416 2.61418 8.03645 2.59941 7.94632 2.59941C7.60082 2.59941 7.60082 2.59941 7.60082 2.9391V2.95387Z"
            fill="#254A3D" stroke="#254A3D" stroke-width="0.25" stroke-linecap="round"
            stroke-linejoin="round" />
        <path
            d="M12.0924 8.09353C12.1675 8.25599 12.2576 8.40369 12.3327 8.56615C12.3778 8.65476 12.4379 8.72861 12.4529 8.81722C12.4529 8.8763 12.4379 8.93538 12.4229 8.99446C12.3628 8.97969 12.3027 8.96492 12.2426 8.92061C12.2126 8.90584 12.2126 8.86153 12.1825 8.83199C12.0774 8.62522 11.9722 8.41846 11.8671 8.22646C11.852 8.18215 11.807 8.13784 11.7619 8.13784C11.6267 8.13784 11.4765 8.13784 11.3113 8.13784C11.3113 8.37415 11.3113 8.58092 11.3113 8.80246C11.3113 8.84676 11.3113 8.90584 11.2963 8.93538C11.2812 8.97969 11.2211 9.02399 11.1911 9.02399C11.146 9.02399 11.101 8.97969 11.0709 8.93538C11.0559 8.90584 11.0559 8.86153 11.0559 8.81722C11.0559 8.27076 11.0559 7.73907 11.0559 7.19261C11.0559 7.00061 11.0709 6.98584 11.2662 6.98584C11.4615 6.98584 11.6568 6.98584 11.852 6.98584C12.1675 6.98584 12.3928 7.1483 12.4529 7.39938C12.528 7.69476 12.4078 7.94584 12.1224 8.09353C12.1224 8.09353 12.1074 8.09353 12.0774 8.12307L12.0924 8.09353ZM11.3113 7.17784C11.3113 7.41415 11.3113 7.62092 11.3113 7.82769C11.3113 7.85722 11.3563 7.90153 11.3714 7.90153C11.5817 7.90153 11.792 7.90153 12.0023 7.87199C12.1525 7.84246 12.2276 7.70953 12.2276 7.5323C12.2276 7.36984 12.1375 7.23692 11.9872 7.22215C11.7769 7.19261 11.5516 7.19261 11.3263 7.19261L11.3113 7.17784Z"
            fill="#254A3D" stroke="#254A3D" stroke-width="0.25" stroke-linecap="round"
            stroke-linejoin="round" />
        <path
            d="M12.3175 3.52987C12.4377 3.76618 12.5578 3.98772 12.663 4.20925C12.708 4.2831 12.7381 4.35695 12.6329 4.41602C12.5428 4.46033 12.4827 4.41602 12.4377 4.32741C12.3175 4.10587 12.2123 3.88433 12.0922 3.64802C12.0471 3.57418 12.002 3.54464 11.9119 3.54464C11.5213 3.54464 11.5213 3.54464 11.5213 3.91387C11.5213 4.04679 11.5213 4.16495 11.5213 4.29787C11.5213 4.38649 11.4913 4.43079 11.4012 4.43079C11.311 4.43079 11.281 4.37172 11.281 4.29787C11.281 3.7071 11.281 3.11633 11.281 2.52556C11.281 2.43695 11.3261 2.39264 11.4162 2.39264C11.6415 2.39264 11.8819 2.39264 12.1072 2.39264C12.4076 2.39264 12.6179 2.56987 12.678 2.85049C12.7381 3.11633 12.6179 3.35264 12.3626 3.48556C12.3475 3.48556 12.3175 3.5151 12.2874 3.52987H12.3175ZM11.5514 2.96864C11.5514 3.05725 11.5514 3.14587 11.5514 3.23449C11.5514 3.26402 11.6115 3.3231 11.6415 3.3231C11.8368 3.3231 12.0171 3.3231 12.2123 3.30833C12.3776 3.29356 12.4827 3.14587 12.4827 2.96864C12.4827 2.79141 12.3776 2.67325 12.2123 2.64372C12.1222 2.62895 12.0171 2.62895 11.9269 2.62895C11.5664 2.62895 11.5664 2.62895 11.5664 2.98341L11.5514 2.96864Z"
            fill="#254A3D" stroke="#254A3D" stroke-width="0.25" stroke-linecap="round"
            stroke-linejoin="round" />
        <path
            d="M9.64379 3.27879C9.89916 3.27879 10.1245 3.27879 10.3648 3.27879C10.455 3.27879 10.5451 3.27879 10.5451 3.39695C10.5451 3.5151 10.455 3.5151 10.3648 3.5151C10.1395 3.5151 9.89916 3.5151 9.65881 3.5151V4.19449C9.76396 4.19449 9.86911 4.19449 9.98929 4.19449C10.1695 4.19449 10.3648 4.19449 10.5451 4.19449C10.6202 4.19449 10.6953 4.20925 10.6953 4.31264C10.6953 4.40125 10.6202 4.43079 10.5451 4.43079C10.2146 4.43079 9.88414 4.43079 9.55366 4.43079C9.43349 4.43079 9.38843 4.38649 9.38843 4.26833C9.38843 3.69233 9.38843 3.1311 9.38843 2.5551C9.38843 2.45172 9.43349 2.39264 9.55366 2.39264C9.88414 2.39264 10.2146 2.39264 10.5451 2.39264C10.6202 2.39264 10.7103 2.39264 10.7103 2.49602C10.7103 2.59941 10.6202 2.61418 10.5451 2.61418C10.3047 2.61418 10.0494 2.61418 9.80903 2.61418C9.70388 2.61418 9.65881 2.64372 9.65881 2.7471C9.65881 2.90956 9.65881 3.08679 9.65881 3.27879H9.64379Z"
            fill="#254A3D" stroke="#254A3D" stroke-width="0.25" stroke-linecap="round"
            stroke-linejoin="round" />
        <path
            d="M15.4571 3.27879C15.7125 3.27879 15.9378 3.27879 16.1782 3.27879C16.2683 3.27879 16.3584 3.27879 16.3584 3.39695C16.3584 3.5151 16.2683 3.5151 16.1782 3.5151C15.9528 3.5151 15.7125 3.5151 15.4722 3.5151V4.17971C15.4722 4.17971 15.5623 4.17971 15.6224 4.17971C15.8627 4.17971 16.1181 4.17971 16.3584 4.17971C16.4185 4.17971 16.5086 4.23879 16.5086 4.29787C16.5086 4.38648 16.4335 4.41602 16.3584 4.41602C16.028 4.41602 15.6975 4.41602 15.367 4.41602C15.2619 4.41602 15.2168 4.37172 15.2168 4.26833C15.2168 3.69233 15.2168 3.10156 15.2168 2.52556C15.2168 2.42218 15.2619 2.37787 15.367 2.37787C15.6975 2.37787 16.028 2.37787 16.3584 2.37787C16.4335 2.37787 16.5237 2.37787 16.5237 2.48125C16.5237 2.56987 16.4486 2.58464 16.3584 2.58464C16.1031 2.58464 15.8477 2.58464 15.5923 2.58464C15.5022 2.58464 15.4571 2.61418 15.4571 2.71756C15.4571 2.89479 15.4571 3.05725 15.4571 3.26402V3.27879Z"
            fill="#254A3D" stroke="#254A3D" stroke-width="0.25" stroke-linecap="round"
            stroke-linejoin="round" />
        <path
            d="M8.8927 8.90584C8.8927 8.90584 8.84764 8.97968 8.81759 8.97968C8.77253 8.97968 8.69742 8.95014 8.66738 8.90584C8.62231 8.81722 8.57725 8.69907 8.54721 8.59568C8.51716 8.52184 8.48712 8.4923 8.41201 8.4923C8.18669 8.4923 7.96137 8.4923 7.73605 8.4923C7.66094 8.4923 7.61588 8.52184 7.60086 8.59568C7.57081 8.6843 7.54077 8.75814 7.51073 8.84676C7.48068 8.93537 7.45064 9.02399 7.33047 8.97968C7.22532 8.93538 7.25536 8.84676 7.2854 8.77291C7.45064 8.34461 7.60086 7.90153 7.76609 7.47322C7.81116 7.3403 7.85622 7.19261 7.91631 7.05968C7.94635 7.00061 8.02146 6.94153 8.08154 6.94153C8.12661 6.94153 8.21674 7.00061 8.23176 7.05968C8.45708 7.65045 8.66738 8.24122 8.87768 8.83199C8.87768 8.84676 8.87768 8.86153 8.87768 8.92061L8.8927 8.90584ZM7.73605 8.27076H8.44206C8.32189 7.94584 8.21674 7.65045 8.11159 7.35507C8.11159 7.35507 8.08154 7.35507 8.06652 7.35507C7.96137 7.65045 7.8412 7.96061 7.73605 8.27076Z"
            fill="#254A3D" stroke="#254A3D" stroke-width="0.25" stroke-linecap="round"
            stroke-linejoin="round" />
        <path
            d="M5.60303 7.97538C5.60303 7.69476 5.60303 7.41414 5.60303 7.13353C5.60303 7.00061 5.64809 6.9563 5.78328 6.9563C5.99359 6.9563 6.21891 6.9563 6.42921 6.9563C6.78972 6.9563 7.01504 7.19261 7.01504 7.5323C7.01504 7.88676 6.80474 8.12307 6.44423 8.15261C6.32406 8.15261 6.18886 8.15261 6.06869 8.15261C5.92849 8.15261 5.85839 8.21661 5.85839 8.34461C5.85839 8.50707 5.85839 8.65476 5.85839 8.81722C5.85839 8.90584 5.84337 8.99445 5.73822 8.99445C5.63307 8.99445 5.60303 8.90584 5.60303 8.81722C5.60303 8.53661 5.60303 8.25599 5.60303 7.97538ZM5.87341 7.9163C6.08371 7.9163 6.26397 7.9163 6.45925 7.9163C6.62449 7.9163 6.75968 7.78338 6.7747 7.62091C6.80474 7.44368 6.72964 7.28122 6.5644 7.22214C6.33908 7.1483 6.09874 7.17784 5.87341 7.19261V7.9163Z"
            fill="#254A3D" stroke="#254A3D" stroke-width="0.25" stroke-linecap="round"
            stroke-linejoin="round" />
        <path
            d="M14.1201 7.96061C14.1201 7.67999 14.1201 7.39938 14.1201 7.11876C14.1201 7.00061 14.1502 6.9563 14.2854 6.9563C14.6158 6.9563 14.9313 6.9563 15.2617 6.9563C15.3369 6.9563 15.427 6.9563 15.427 7.05968C15.427 7.17784 15.3369 7.17784 15.2617 7.17784C15.0214 7.17784 14.766 7.17784 14.5257 7.17784C14.4205 7.17784 14.3605 7.20738 14.3755 7.32553C14.3755 7.45845 14.3755 7.57661 14.3755 7.70953C14.3755 7.81291 14.4055 7.84245 14.5107 7.84245C14.6909 7.84245 14.8862 7.84245 15.0665 7.84245C15.1566 7.84245 15.2768 7.82768 15.2768 7.96061C15.2768 8.09353 15.1566 8.07876 15.0665 8.07876C14.8712 8.07876 14.6909 8.07876 14.4957 8.07876C14.3905 8.07876 14.3605 8.1083 14.3755 8.21168C14.3755 8.35938 14.3755 8.4923 14.3755 8.63999C14.3755 8.74338 14.4055 8.77291 14.5107 8.77291C14.766 8.77291 15.0064 8.77291 15.2617 8.77291C15.3068 8.77291 15.3669 8.78768 15.3969 8.81722C15.412 8.81722 15.427 8.89107 15.427 8.92061C15.412 8.95014 15.3669 8.99445 15.3218 8.99445C14.9613 8.99445 14.6008 8.99445 14.2253 8.99445C14.1201 8.99445 14.1201 8.92061 14.1201 8.84676C14.1201 8.55138 14.1201 8.25599 14.1201 7.96061Z"
            fill="#254A3D" stroke="#254A3D" stroke-width="0.25" stroke-linecap="round"
            stroke-linejoin="round" />
        <path
            d="M9.65885 7.17784C9.49361 7.17784 9.3434 7.17784 9.20821 7.17784C9.1331 7.17784 9.04297 7.17784 9.04297 7.07445C9.04297 6.97107 9.1331 6.97107 9.20821 6.97107C9.59876 6.97107 9.98932 6.97107 10.3799 6.97107C10.47 6.97107 10.5451 6.97107 10.5451 7.08922C10.5451 7.19261 10.455 7.19261 10.3799 7.19261C10.2747 7.19261 10.1696 7.19261 10.0644 7.19261C9.94426 7.19261 9.91421 7.23692 9.91421 7.3403C9.91421 7.81292 9.91421 8.27076 9.91421 8.74338C9.91421 8.78769 9.91421 8.84676 9.91421 8.8763C9.88417 8.93538 9.83911 9.00922 9.79404 9.00922C9.70391 9.00922 9.67387 8.95015 9.67387 8.86153C9.67387 8.61045 9.67387 8.35938 9.67387 8.1083C9.67387 7.81292 9.67387 7.51753 9.67387 7.19261L9.65885 7.17784Z"
            fill="#254A3D" stroke="#254A3D" stroke-width="0.25" stroke-linecap="round"
            stroke-linejoin="round" />
        <path
            d="M13.7897 3.50033C13.7897 3.24925 13.7897 3.01295 13.7897 2.76187C13.7897 2.64372 13.7446 2.61418 13.6395 2.61418C13.5343 2.61418 13.4142 2.61418 13.309 2.61418C13.2339 2.61418 13.1738 2.59941 13.1738 2.49602C13.1738 2.40741 13.2339 2.39264 13.309 2.39264C13.7296 2.39264 14.1352 2.39264 14.5558 2.39264C14.6009 2.39264 14.6459 2.46649 14.691 2.49602C14.6459 2.52556 14.6159 2.59941 14.5558 2.59941C14.4507 2.61418 14.3305 2.59941 14.2253 2.59941C14.1052 2.59941 14.0601 2.62895 14.0601 2.76187C14.0601 3.23449 14.0601 3.69233 14.0601 4.16495C14.0601 4.20925 14.0601 4.26833 14.0601 4.29787C14.0301 4.34218 13.985 4.38649 13.9399 4.41602C13.8949 4.37172 13.8348 4.34218 13.8197 4.29787C13.8047 4.17972 13.8197 4.06156 13.8197 3.94341C13.8197 3.79572 13.8197 3.64802 13.8197 3.48556L13.7897 3.50033Z"
            fill="#254A3D" stroke="#254A3D" stroke-width="0.25" stroke-linecap="round"
            stroke-linejoin="round" />
        <path
            d="M4.53638 3.41171C4.53638 3.11633 4.53638 2.83571 4.53638 2.54033C4.53638 2.45171 4.53638 2.37787 4.65655 2.37787C4.7617 2.37787 4.79174 2.46648 4.79174 2.5551C4.79174 3.05725 4.79174 3.55941 4.79174 4.04679C4.79174 4.16495 4.82178 4.19448 4.94196 4.19448C5.16728 4.19448 5.3926 4.19448 5.63294 4.19448C5.66299 4.19448 5.72307 4.19448 5.73809 4.19448C5.78316 4.22402 5.8132 4.26833 5.85827 4.31264C5.8132 4.34218 5.76814 4.41602 5.72307 4.41602C5.37758 4.41602 5.03209 4.41602 4.67157 4.41602C4.56642 4.41602 4.5514 4.34218 4.5514 4.25356C4.5514 3.97295 4.5514 3.69233 4.5514 3.39695L4.53638 3.41171Z"
            fill="#254A3D" stroke="#254A3D" stroke-width="0.25" stroke-linecap="round"
            stroke-linejoin="round" />
        <path
            d="M9.37342 5.68616C9.37342 5.5237 9.37342 5.34647 9.37342 5.18401C9.37342 5.08062 9.40346 5.03632 9.52363 5.03632C9.73394 5.03632 9.94424 5.03632 10.1545 5.03632C10.1996 5.03632 10.2447 5.09539 10.2897 5.12493C10.2447 5.15447 10.1996 5.18401 10.1545 5.19878C10.0043 5.19878 9.85411 5.19878 9.68887 5.19878C9.59874 5.19878 9.55368 5.22832 9.55368 5.31693C9.55368 5.65662 9.50861 5.59755 9.83909 5.61232C9.91419 5.61232 10.0043 5.61232 10.0794 5.61232C10.1095 5.61232 10.1395 5.65662 10.1696 5.68616C10.1395 5.7157 10.1095 5.76001 10.0794 5.76001C9.94424 5.76001 9.80904 5.76001 9.67385 5.76001C9.58372 5.76001 9.55368 5.78955 9.55368 5.86339C9.55368 6.24739 9.50861 6.17355 9.85411 6.17355C9.95926 6.17355 10.0644 6.17355 10.1696 6.17355C10.1996 6.17355 10.2447 6.21785 10.2747 6.24739C10.2447 6.27693 10.2146 6.32124 10.1696 6.32124C9.94424 6.32124 9.71891 6.32124 9.47857 6.32124C9.37342 6.32124 9.3584 6.26216 9.3584 6.18832C9.3584 6.01108 9.3584 5.83385 9.3584 5.67139L9.37342 5.68616Z"
            fill="#254A3D" stroke="#254A3D" stroke-width="0.25" stroke-linecap="round"
            stroke-linejoin="round" />
        <path
            d="M13.3841 7.97538C13.3841 8.27076 13.3841 8.55138 13.3841 8.84676C13.3841 8.93538 13.3691 9.00922 13.264 9.00922C13.1588 9.00922 13.1438 8.93538 13.1438 8.84676C13.1438 8.27076 13.1438 7.69476 13.1438 7.11876C13.1438 7.03015 13.1738 6.9563 13.264 6.9563C13.3691 6.9563 13.3841 7.03015 13.3841 7.11876C13.3841 7.41415 13.3841 7.69476 13.3841 7.99014V7.97538Z"
            fill="#254A3D" stroke="#254A3D" stroke-width="0.25" stroke-linecap="round"
            stroke-linejoin="round" />
        <path
            d="M6.62446 3.41172C6.62446 3.69233 6.62446 3.95818 6.62446 4.23879C6.62446 4.2831 6.62446 4.32741 6.60944 4.35695C6.5794 4.38649 6.51931 4.43079 6.47425 4.43079C6.4442 4.43079 6.39914 4.37172 6.38412 4.34218C6.3691 4.29787 6.38412 4.25356 6.38412 4.20925C6.38412 3.67756 6.38412 3.16064 6.38412 2.62895C6.38412 2.59941 6.38412 2.5551 6.38412 2.52556C6.41416 2.48125 6.45922 2.43695 6.50429 2.39264C6.54935 2.43695 6.59442 2.48125 6.62446 2.54033C6.63948 2.58464 6.62446 2.65849 6.62446 2.71756C6.62446 2.95387 6.62446 3.19018 6.62446 3.42649V3.41172Z"
            fill="#254A3D" stroke="#254A3D" stroke-width="0.25" stroke-linecap="round"
            stroke-linejoin="round" />
        <path
            d="M11.0709 5.76001C11.0709 5.61232 11.0709 5.46462 11.0709 5.31693C11.0709 5.22832 11.0408 5.18401 10.9357 5.18401C10.8606 5.18401 10.8005 5.18401 10.7254 5.18401C10.6953 5.18401 10.6653 5.1397 10.6353 5.11016C10.6653 5.08062 10.6953 5.03632 10.7254 5.03632C11.0108 5.03632 11.2962 5.03632 11.5966 5.03632C11.6267 5.03632 11.6567 5.09539 11.6868 5.11016C11.6567 5.1397 11.6267 5.16924 11.5966 5.18401C11.5215 5.18401 11.4614 5.18401 11.3863 5.18401C11.2812 5.18401 11.2361 5.21355 11.2361 5.3317C11.2361 5.62708 11.2361 5.92247 11.2361 6.20308C11.2361 6.24739 11.2361 6.2917 11.2061 6.32124C11.2061 6.33601 11.131 6.35078 11.1159 6.33601C11.0859 6.30647 11.0709 6.27693 11.0559 6.23262C11.0559 6.07016 11.0559 5.9077 11.0559 5.76001H11.0709Z"
            fill="#254A3D" stroke="#254A3D" stroke-width="0.25" stroke-linecap="round"
            stroke-linejoin="round" />
        <path
            d="M16.1481 1.83141C16.043 1.9348 15.9378 2.03818 15.8327 2.1268C15.8327 2.1268 15.7726 2.1268 15.7576 2.09726C15.7426 2.08249 15.7275 2.02341 15.7576 2.00864C15.8327 1.90526 15.9228 1.81664 16.0129 1.72803C16.0129 1.72803 16.073 1.72803 16.1031 1.72803C16.1331 1.72803 16.1331 1.77234 16.1632 1.83141H16.1481Z"
            fill="#254A3D" stroke="#254A3D" stroke-width="0.25" stroke-linecap="round"
            stroke-linejoin="round" />
    </g>
    <defs>
        <clipPath id="clip0_862_7004">
            <rect width="21" height="24" fill="white" />
        </clipPath>
    </defs>
</svg>
    