<svg width="18" height="16" viewBox="0 0 18 16" fill="none" xmlns="http://www.w3.org/2000/svg">
    <path d="M7 4H17M1 12H11" stroke="#254A3D" stroke-width="1.8" stroke-linecap="round" />
    <path
        d="M1 4C1 5.65685 2.34315 7 4 7C5.65685 7 7 5.65685 7 4C7 2.34315 5.65685 1 4 1C2.34315 1 1 2.34315 1 4Z"
        stroke="#254A3D" stroke-width="1.8" stroke-linecap="round" />
    <path
        d="M11 12C11 13.6569 12.3431 15 14 15C15.6569 15 17 13.6569 17 12C17 10.3431 15.6569 9 14 9C12.3431 9 11 10.3431 11 12Z"
        stroke="#254A3D" stroke-width="1.8" stroke-linecap="round" />
</svg>
    