<svg width="24" height="24" viewBox="0 0 24 24" fill="none" xmlns="http://www.w3.org/2000/svg">
    <path fill-rule="evenodd" clip-rule="evenodd"
        d="M10.5 2C9.14459 2.00012 7.80886 2.32436 6.60425 2.94569C5.39964 3.56702 4.36109 4.46742 3.57523 5.57175C2.78937 6.67609 2.279 7.95235 2.0867 9.29404C1.8944 10.6357 2.02574 12.004 2.46977 13.2846C2.9138 14.5652 3.65764 15.7211 4.63923 16.6557C5.62082 17.5904 6.8117 18.2768 8.11251 18.6576C9.41332 19.0384 10.7863 19.1026 12.117 18.8449C13.4477 18.5872 14.6974 18.015 15.762 17.176L19.414 20.828C19.6026 21.0102 19.8552 21.111 20.1174 21.1087C20.3796 21.1064 20.6304 21.0012 20.8158 20.8158C21.0012 20.6304 21.1064 20.3796 21.1087 20.1174C21.1109 19.8552 21.0102 19.6026 20.828 19.414L17.176 15.762C18.164 14.5086 18.7792 13.0024 18.9511 11.4157C19.123 9.82905 18.8448 8.22602 18.1482 6.79009C17.4516 5.35417 16.3649 4.14336 15.0123 3.29623C13.6597 2.44911 12.096 1.99989 10.5 2ZM3.99999 10.5C3.99999 8.77609 4.68481 7.12279 5.9038 5.90381C7.12279 4.68482 8.77609 4 10.5 4C12.2239 4 13.8772 4.68482 15.0962 5.90381C16.3152 7.12279 17 8.77609 17 10.5C17 12.2239 16.3152 13.8772 15.0962 15.0962C13.8772 16.3152 12.2239 17 10.5 17C8.77609 17 7.12279 16.3152 5.9038 15.0962C4.68481 13.8772 3.99999 12.2239 3.99999 10.5Z"
        fill="#254A3D" />
</svg>