<svg width="87" height="84" viewBox="0 0 87 84" fill="none" xmlns="http://www.w3.org/2000/svg">
    <path
        d="M82 65.5H80.2675L79.4156 64.2225C79.37 64.1541 79.3082 64.098 79.2357 64.0592C79.1632 64.0204 79.0822 64 79 64H75C74.9178 64 74.8368 64.0204 74.7643 64.0592C74.6918 64.098 74.63 64.1541 74.5844 64.2225L73.7319 65.5H72C71.6022 65.5 71.2206 65.658 70.9393 65.9393C70.658 66.2206 70.5 66.6022 70.5 67V74C70.5 74.3978 70.658 74.7794 70.9393 75.0607C71.2206 75.342 71.6022 75.5 72 75.5H82C82.3978 75.5 82.7794 75.342 83.0607 75.0607C83.342 74.7794 83.5 74.3978 83.5 74V67C83.5 66.6022 83.342 66.2206 83.0607 65.9393C82.7794 65.658 82.3978 65.5 82 65.5ZM82.5 74C82.5 74.1326 82.4473 74.2598 82.3536 74.3536C82.2598 74.4473 82.1326 74.5 82 74.5H72C71.8674 74.5 71.7402 74.4473 71.6464 74.3536C71.5527 74.2598 71.5 74.1326 71.5 74V67C71.5 66.8674 71.5527 66.7402 71.6464 66.6464C71.7402 66.5527 71.8674 66.5 72 66.5H74C74.0823 66.5001 74.1634 66.4798 74.236 66.441C74.3086 66.4021 74.3706 66.346 74.4163 66.2775L75.2675 65H78.7319L79.5837 66.2775C79.6294 66.346 79.6914 66.4021 79.764 66.441C79.8366 66.4798 79.9177 66.5001 80 66.5H82C82.1326 66.5 82.2598 66.5527 82.3536 66.6464C82.4473 66.7402 82.5 66.8674 82.5 67V74ZM77 67.5C76.4561 67.5 75.9244 67.6613 75.4722 67.9635C75.0199 68.2656 74.6675 68.6951 74.4593 69.1976C74.2512 69.7001 74.1967 70.2531 74.3028 70.7865C74.409 71.3199 74.6709 71.8099 75.0555 72.1945C75.4401 72.5791 75.9301 72.8411 76.4635 72.9472C76.9969 73.0533 77.5499 72.9988 78.0524 72.7907C78.5549 72.5825 78.9844 72.2301 79.2865 71.7778C79.5887 71.3256 79.75 70.7939 79.75 70.25C79.7492 69.5209 79.4592 68.8219 78.9436 68.3064C78.4281 67.7908 77.7291 67.5008 77 67.5ZM77 72C76.6539 72 76.3155 71.8974 76.0278 71.7051C75.74 71.5128 75.5157 71.2395 75.3832 70.9197C75.2508 70.5999 75.2161 70.2481 75.2836 69.9086C75.3511 69.5691 75.5178 69.2573 75.7626 69.0126C76.0073 68.7678 76.3191 68.6011 76.6586 68.5336C76.9981 68.4661 77.3499 68.5008 77.6697 68.6332C77.9895 68.7657 78.2628 68.99 78.4551 69.2778C78.6474 69.5655 78.75 69.9039 78.75 70.25C78.75 70.7141 78.5656 71.1592 78.2374 71.4874C77.9092 71.8156 77.4641 72 77 72Z"
        fill="#254A3D" />
    <circle cx="77" cy="70" r="9.5" stroke="#254A3D" />
    <path
        d="M18.607 68.0344C20.7362 63.0182 25.7072 59.5 31.5 59.5H52.5C58.2928 59.5 63.2638 63.0182 65.393 68.0344M56 33.25C56 40.982 49.732 47.25 42 47.25C34.268 47.25 28 40.982 28 33.25C28 25.518 34.268 19.25 42 19.25C49.732 19.25 56 25.518 56 33.25ZM77 42C77 61.33 61.33 77 42 77C22.67 77 7 61.33 7 42C7 22.67 22.67 7 42 7C61.33 7 77 22.67 77 42Z"
        stroke="#254A3D" stroke-width="2" stroke-linecap="round" stroke-linejoin="round" />
</svg>
    