<svg width="44" height="44" viewBox="0 0 44 44" fill="none" xmlns="http://www.w3.org/2000/svg">
    <g filter="url(#filter0_d_862_6865)">
        <rect x="2" y="1" width="40" height="40" rx="8" fill="#ECF7F2" shape-rendering="crispEdges" />
        <rect x="2.5" y="1.5" width="39" height="39" rx="7.5" stroke="#EAECF0"
            shape-rendering="crispEdges" />
        <path
            d="M18.6667 24.3333L22.0001 21M22.0001 21L25.3334 24.3333M22.0001 21V28.5M28.6667 24.9524C29.6847 24.1117 30.3334 22.8399 30.3334 21.4167C30.3334 18.8854 28.2814 16.8333 25.7501 16.8333C25.568 16.8333 25.3976 16.7383 25.3052 16.5814C24.2185 14.7374 22.2121 13.5 19.9167 13.5C16.465 13.5 13.6667 16.2982 13.6667 19.75C13.6667 21.4718 14.363 23.0309 15.4892 24.1613"
            stroke="#475467" stroke-width="1.66667" stroke-linecap="round" stroke-linejoin="round" />
    </g>
    <defs>
        <filter id="filter0_d_862_6865" x="0" y="0" width="44" height="44"
            filterUnits="userSpaceOnUse" color-interpolation-filters="sRGB">
            <feFlood flood-opacity="0" result="BackgroundImageFix" />
            <feColorMatrix in="SourceAlpha" type="matrix"
                values="0 0 0 0 0 0 0 0 0 0 0 0 0 0 0 0 0 0 127 0" result="hardAlpha" />
            <feOffset dy="1" />
            <feGaussianBlur stdDeviation="1" />
            <feComposite in2="hardAlpha" operator="out" />
            <feColorMatrix type="matrix"
                values="0 0 0 0 0.0627451 0 0 0 0 0.0941176 0 0 0 0 0.156863 0 0 0 0.05 0" />
            <feBlend mode="normal" in2="BackgroundImageFix" result="effect1_dropShadow_862_6865" />
            <feBlend mode="normal" in="SourceGraphic" in2="effect1_dropShadow_862_6865"
                result="shape" />
        </filter>
    </defs>
</svg>
    