<svg width="24" height="24" viewBox="0 0 24 24" fill="none" xmlns="http://www.w3.org/2000/svg">
    <g clip-path="url(#clip0_862_6984)">
        <path
            d="M11.999 5.74127e-07C5.38727 0.00203442 -0.00338833 5.3951 1.59795e-06 12.0051C0.00339152 18.6056 5.38253 23.9885 11.9854 23.9993C18.5843 24.0102 23.9912 18.6117 24 12.0031C24.0095 5.39985 18.6087 -0.00203327 11.999 5.74127e-07ZM11.9963 22.2841C6.33171 22.2868 1.67259 17.6165 1.71598 11.9786C1.76005 6.27982 6.37103 1.68402 12.0132 1.71588C17.7049 1.74775 22.3003 6.35169 22.284 12.0064C22.2678 17.6754 17.6568 22.2821 11.9963 22.2841Z"
            fill="#254A3D" />
        <path
            d="M11.7943 3.67786C13.2228 3.67921 14.3591 4.8141 14.3612 6.24185C14.3632 7.67029 13.2317 8.80924 11.8038 8.81602C10.3685 8.82212 9.21866 7.67368 9.2234 6.23846C9.22815 4.81071 10.3665 3.67718 11.7936 3.67786H11.7943ZM13.5015 6.26287C13.5076 5.32188 12.7482 4.54563 11.8147 4.53817C10.8729 4.53071 10.0926 5.28798 10.0831 6.21812C10.0729 7.17132 10.8377 7.95299 11.7828 7.95638C12.7225 7.95977 13.4961 7.19776 13.5015 6.26287Z"
            fill="#254A3D" />
        <path
            d="M18.435 10.6613C18.395 10.0153 17.8553 9.55629 17.1645 9.60713C16.0444 9.68984 14.9244 9.78272 13.8057 9.88373C12.127 10.0356 10.4538 9.97322 8.78051 9.80713C7.95743 9.72577 7.13233 9.65933 6.30722 9.60578C5.64686 9.56307 5.12549 10.0227 5.076 10.6573C5.03261 11.2139 5.5072 11.7535 6.10789 11.8138C6.64418 11.8674 7.18182 11.9047 7.71878 11.9508C8.26321 11.9969 8.80763 12.0437 9.35205 12.0911C9.56155 12.1094 9.78393 12.1698 9.78867 12.3928C9.79952 12.9291 9.87342 13.4687 9.65036 13.9955C9.02865 15.4653 8.42389 16.9418 7.81913 18.4184C7.57641 19.0109 7.86252 19.6407 8.46253 19.8719C9.06323 20.1031 9.71613 19.8374 9.98664 19.2503C10.0477 19.1181 10.1039 18.9845 10.1616 18.8509C10.6836 17.6381 11.2057 16.4246 11.7494 15.1622C11.803 15.2788 11.8335 15.3426 11.8613 15.407C12.4132 16.6788 12.9623 17.9513 13.5183 19.2218C13.7698 19.7974 14.3719 20.0679 14.9664 19.8868C15.6227 19.6862 15.9482 19.0387 15.6912 18.4055C15.1692 17.1222 14.6546 15.8361 14.1 14.5656C13.8213 13.9263 13.6545 13.2877 13.7088 12.5935C13.7373 12.2294 13.8139 12.1216 14.2037 12.0877C15.2397 11.9976 16.2756 11.9074 17.3116 11.8227C17.9842 11.7677 18.4737 11.2681 18.4357 10.662L18.435 10.6613Z"
            fill="#254A3D" />
        <path
            d="M13.5015 6.26285C13.4961 7.19774 12.7225 7.95975 11.7828 7.95636C10.8377 7.95297 10.0736 7.1713 10.0831 6.2181C10.0926 5.28728 10.8729 4.53002 11.8147 4.53815C12.7483 4.54561 13.5069 5.32186 13.5015 6.26285Z"
            fill="#254A3D" />
    </g>
    <defs>
        <clipPath id="clip0_862_6984">
            <rect width="24" height="24" fill="white" />
        </clipPath>
    </defs>
</svg>
    