<svg width="24" height="24" viewBox="0 0 24 24" fill="none" xmlns="http://www.w3.org/2000/svg">
    <path
        d="M11.999 0.000366785C5.38727 0.00240063 -0.00338833 5.39547 1.59795e-06 12.0055C0.00339152 18.6059 5.38253 23.9888 11.9854 23.9997C18.5843 24.0105 23.9912 18.612 24 12.0034C24.0095 5.40021 18.6087 -0.00166706 11.999 0.000366785ZM11.9963 22.2845C6.33171 22.2872 1.67259 17.6168 1.71598 11.979C1.76005 6.28019 6.37103 1.68439 12.0132 1.71625C17.7049 1.74811 22.3003 6.35205 22.284 12.0068C22.2678 17.6758 17.6568 22.2824 11.9963 22.2845Z"
        fill="#254A3D" />
    <path
        d="M14.9711 7.95406C15.5121 8.98984 16.0195 9.95853 16.5604 10.9943C16.0572 10.9943 15.6085 11.0111 15.164 10.9817C15.0718 10.9775 14.9669 10.8224 14.9124 10.7133C14.4679 9.88305 14.0276 9.04855 13.5999 8.20986C13.5034 8.02116 13.3902 7.94148 13.1763 7.94987C12.627 7.96245 12.0735 7.96245 11.5241 7.94987C11.3103 7.94568 11.1928 8.01697 11.0964 8.20567C10.6687 9.04436 10.2158 9.87047 9.79224 10.7133C9.68321 10.9314 9.55321 11.0153 9.30999 11.0027C8.94516 10.9817 8.57614 10.9985 8.13163 10.9985C8.66839 9.96691 9.1758 8.99404 9.71675 7.95406C9.25128 7.95406 8.85291 7.95406 8.45453 7.95406C7.62003 7.95406 6.78973 7.95406 5.95524 7.95406C5.32203 7.95406 5.09559 7.68988 5.08301 6.96441C5.07042 6.31024 5.30106 6.02508 5.9175 6.0125C7.03295 5.99573 8.14421 5.99992 9.25967 6.00412C12.258 6.00412 15.2605 6.0167 18.2588 6.02089C18.9004 6.02089 19.1688 6.30604 19.1646 6.97699C19.1646 7.69827 18.9255 7.95406 18.242 7.95406C17.1769 7.95406 16.1117 7.95406 14.9669 7.95406H14.9711Z"
        fill="#254A3D" />
    <path
        d="M12.1364 12.7807C9.07519 12.7807 6.01817 12.7807 2.95696 12.7807C2.82277 12.7807 2.68439 12.7807 2.55439 12.7514C2.21472 12.6843 1.98408 12.3739 2.00086 12.0301C2.01763 11.6778 2.27343 11.3969 2.6131 11.3549C2.68439 11.3466 2.75987 11.3466 2.83116 11.3466C9.02487 11.3466 15.2186 11.3466 21.4123 11.3466C21.9029 11.3466 22.1965 11.5856 22.2342 11.9965C22.2677 12.3572 22.0371 12.6759 21.6765 12.7472C21.5339 12.7765 21.3829 12.7723 21.2362 12.7723C18.2001 12.7723 15.1641 12.7723 12.128 12.7723L12.1364 12.7807Z"
        fill="#254A3D" />
    <path
        d="M8.50059 13.1246C8.39156 13.3426 8.31189 13.5104 8.22382 13.6823C7.70384 14.6761 7.17966 15.67 6.66806 16.668C6.55064 16.8987 6.42065 17.0287 6.13549 16.9951C5.88389 16.9658 5.62389 16.9993 5.36809 16.9951C5.12068 16.9867 5.041 16.8735 5.16681 16.6387C5.75389 15.5274 6.33678 14.412 6.92805 13.3007C6.96999 13.221 7.0874 13.133 7.17127 13.1288C7.59481 13.112 8.02254 13.1204 8.50478 13.1204L8.50059 13.1246Z"
        fill="#254A3D" />
    <path
        d="M16.2083 13.1455C16.3005 13.1329 16.3341 13.1246 16.3718 13.1246C16.7996 13.1287 17.3028 12.9987 17.6299 13.1791C17.936 13.351 18.0618 13.8542 18.2589 14.219C18.6615 14.9739 19.0556 15.7287 19.454 16.4877C19.605 16.777 19.5169 16.9238 19.1898 16.9322C19.1772 16.9322 19.1647 16.9322 19.1521 16.9322C18.4015 17.0874 17.9947 16.7686 17.6928 16.0683C17.307 15.1626 16.787 14.3113 16.3257 13.4391C16.2838 13.3552 16.2544 13.2629 16.2041 13.1455H16.2083Z"
        fill="#254A3D" />
</svg>
    