<svg width="22" height="22" viewBox="0 0 22 22" fill="none" xmlns="http://www.w3.org/2000/svg">
    <path
        d="M11 8C10.1077 7.98562 9.23626 8.27003 8.52424 8.808C7.81222 9.34596 7.30055 10.1066 7.07061 10.9688C6.84068 11.8311 6.90568 12.7455 7.25529 13.5665C7.6049 14.3876 8.21904 15.0682 9 15.5M11 2V4M5.6 17.4L4.2 18.8M3 12H1M5.6 6.6L4.2 5.2M19 13.5351V3C19 1.89543 18.1046 1 17 1C15.8954 1 15 1.89543 15 3V13.5351C13.8044 14.2267 13 15.5194 13 17C13 19.2091 14.7909 21 17 21C19.2091 21 21 19.2091 21 17C21 15.5194 20.1956 14.2267 19 13.5351Z"
        stroke="#254A3D" stroke-width="2" stroke-linecap="round" stroke-linejoin="round" />
</svg>
    